<?xml version="1.0" encoding="UTF-8"?>
<svg id="Calque_2" data-name="Calque 2" xmlns="http://www.w3.org/2000/svg" viewBox="0 0 297 354.24">
  <defs>
    <style>
      .cls-1 {
        fill: #074307;
      }

      .cls-2 {
        fill: #064306;
      }

      .cls-3 {
        fill: #074407;
      }

      .cls-4 {
        opacity: .7;
      }
    </style>
  </defs>
  <g id="Calque_1-2" data-name="Calque 1">
    <g>
      <path class="cls-1" d="M39.3,206.8c-4.03-1.61-6.05-2.45-10.09-4.25.58-20.83,10.53-43.43,31.93-50.03,3.77,1.23,7.47,2.88,9.94,5.22-2.7,8.47-4.05,12.69-6.75,21.1-2.73-.29-4.09-.46-6.82-.82,2.26-7.97,3.4-11.97,5.66-19.98-16.51,7.17-24.38,24.95-25.68,42.03,9.14-4.1,13.71-6.41,22.85-11.38.9,2.49,1.35,3.74,2.25,6.22-9.32,5.18-13.97,7.59-23.29,11.9Z"/>
      <path class="cls-1" d="M84.8,197.27c.65-5.87,3.99-14.99,8.27-24.1-.9-.55-1.35-.82-2.25-1.37-5.59,7.73-11.25,15.41-16.98,23.03-1.28,3.39-1.92,5.08-3.19,8.46-2.55-.9-3.83-1.37-6.38-2.33,6.48-17.43,12.91-34.88,19.3-52.35,2.76.53,4.14.79,6.89,1.27-4.16,11.3-8.34,22.6-12.55,33.88,5.3-8.41,11.39-16.77,15.89-21.37,3.11,1.81,4.66,2.69,7.76,4.45-3.14,10.72-6.28,21.43-9.43,32.14-2.93-.67-4.4-1.01-7.33-1.73Z"/>
      <path class="cls-1" d="M121.37,188.26c2.18-7.37,3.27-11.05,5.44-18.43-5.63,9.66-8.45,14.48-14.08,24.05-4.44-.38-6.66-.59-11.1-1.06.64-13.54,7.64-32.23,21.33-37.95,2.9,1.83,4.35,2.74,7.26,4.55.96-2.68,1.44-4.02,2.39-6.71,2.55.17,3.83.25,6.39.4-3.55,12.15-7.11,24.3-10.67,36.45-2.79-.51-4.18-.77-6.97-1.31ZM123.4,161.72c-6.99,5.85-12.43,16.47-14.08,25.3,1.04.22,1.57.33,2.61.54,5.05-7.92,10.08-15.86,15.09-23.82-1.45-.81-2.18-1.21-3.63-2.03ZM130.94,145.87c-4.59,2.73-6.88,4.1-11.46,6.78-.7-1.43-1.04-2.15-1.74-3.59,5.63-3.77,8.45-5.69,14.08-9.54,3.28,1.53,4.92,2.28,8.2,3.8-.81,1.83-1.22,2.75-2.03,4.58-2.81-.81-4.22-1.21-7.04-2.03Z"/>
      <path class="cls-1" d="M145.6,184.64c-2.93-.71-4.4-1.07-7.33-1.78,3.41-9.7,6.82-19.4,10.23-29.1-1.8.53-2.7.79-4.5,1.31.49-2.06.74-3.09,1.23-5.15,2.06-.6,3.09-.9,5.15-1.5,1.39-3.98,2.09-5.96,3.48-9.94,2.7.29,4.05.43,6.75.73-.93,2.76-1.39,4.15-2.32,6.91,3.16-.92,4.74-1.37,7.91-2.27-.61,2.09-.91,3.13-1.52,5.22-3.28.94-4.92,1.41-8.2,2.36-3.42,10.25-5.14,15.38-8.56,25.64,3.74-2.46,5.62-3.69,9.36-6.14.7,1.97,1.05,2.96,1.74,4.94-5.37,3.5-8.05,5.26-13.42,8.77Z"/>
      <path class="cls-1" d="M171.72,177.12c-2.9-.76-4.35-1.13-7.25-1.87-.34-14.08,5.9-31.65,19.81-37.83,3.74.84,5.62,1.27,9.36,2.18-2,6.33-3,9.5-5.01,15.85-6.07,2.95-9.1,4.47-15.16,7.55-.73,2.45-1.09,4.95-1.16,7.51,6.15-3.75,9.23-5.6,15.38-9.22.61,1.93.91,2.9,1.52,4.83-6.99,4.31-10.49,6.53-17.49,11.01ZM183.48,154.1c1.28-4.81,1.92-7.21,3.19-12.01-4.93,3.75-9.14,9.69-11.75,16.36,3.42-1.76,5.14-2.63,8.56-4.35Z"/>
      <path class="cls-1" d="M213.01,163.59c2.18-7.2,3.27-10.8,5.44-17.97-5.63,9.12-8.45,13.74-14.08,23.08-4.44-.57-6.66-.83-11.1-1.29.61-13.1,7.4-32.32,21.33-37.08,2.9,2.07,4.35,3.11,7.26,5.24.96-2.58,1.44-3.87,2.39-6.44,2.55.47,3.83.71,6.39,1.24-3.57,11.71-7.13,23.42-10.67,35.14-2.79-.8-4.18-1.18-6.97-1.92ZM215.04,137.2c-7.08,5.41-12.5,15.92-14.08,24.51,1.04.25,1.57.38,2.61.63,6.04-9.23,9.06-13.8,15.09-22.79-1.45-.95-2.18-1.42-3.63-2.35Z"/>
      <path class="cls-1" d="M248.92,158.48c2.32-7.78,3.48-11.66,5.8-19.39-3.83,8.08-9.01,17.16-15.45,23.51-3.71-1.4-5.57-2.06-9.29-3.33,3.28-10.96,6.57-21.91,9.87-32.87,2.9.98,4.35,1.48,7.26,2.54-.73,6.16-4.21,15.23-8.78,24.34,1.54.57,2.31.86,3.85,1.45,5.56-9.88,11.16-19.72,16.83-29.54,2.7.73,4.05,1.11,6.75,1.92-3.51,11.37-6.99,22.76-10.45,34.15-2.55-1.15-3.83-1.71-6.39-2.79Z"/>
    </g>
    <g>
      <path class="cls-1" d="M214.42,115.69c1.96-5.7,2.93-8.6,4.89-14.44-4.09,7.73-6.14,11.54-10.23,18.48-3.15-.25-4.73-.52-7.88-1.6.31-10.15,5.93-20.33,14.67-25.61,2.21,1.03,3.32,1.48,5.54,2.37,2.53-7.55,3.8-11.37,6.33-18.96,1.64.57,2.45.86,4.09,1.46-4.35,12.92-8.64,25.85-13.02,38.76-1.76-.13-2.63-.21-4.39-.45ZM216.16,97.19c-4.54,4.47-8.08,10.76-9.68,17.79.82.19,1.23.27,2.05.4,4.15-6.43,6.22-10.01,10.37-17.29-1.1-.34-1.65-.52-2.74-.9Z"/>
      <path class="cls-1" d="M239.76,104.35c1.6-5.79,2.39-8.65,3.99-14.28-3.09,6.77-6.93,14.52-10.63,19.2-2.55-.09-3.83-.08-6.38-.07,2.71-10.02,4.07-15.04,6.78-24.95,2,0,2.99.01,4.99.16-.5,4.38-2.89,11.33-6.04,18.68,1.06.03,1.59.05,2.64.11,4.63-9.8,6.94-14.6,11.57-23.17,1.86.25,2.78.44,4.64,1-2.87,9.32-4.31,14.2-7.18,24.22-1.76-.45-2.63-.62-4.39-.88Z"/>
    </g>
    <g>
      <path class="cls-1" d="M63.06,144.71c-4.25-1.59-6.37-2.45-10.62-4.35.65-22.37,11.37-45.75,33.63-53.76,3.97,1.09,7.87,2.63,10.47,4.95-2.84,9.07-4.26,13.59-7.11,22.6-2.87-.16-4.31-.26-7.18-.5,2.38-8.51,3.58-12.78,5.96-21.35-17.19,8.36-25.65,27.04-27.06,45.34,9.63-4.52,14.45-7.19,24.08-12.91.95,2.58,1.42,3.86,2.37,6.43-7.91,4.88-16.16,9.5-24.53,13.53Z"/>
      <path class="cls-1" d="M111.67,132.41c2.29-7.71,3.44-11.56,5.73-19.28-4.92,8.33-9.86,16.66-14.83,24.96-4.68-.54-7.02-.83-11.69-1.52.65-14.09,8.05-33.61,22.47-39.28,3.06,2,4.59,2.99,7.64,4.97,1.01-2.8,1.51-4.2,2.52-7,2.69.24,4.04.36,6.73.6-3.75,12.7-7.49,25.4-11.24,38.1-2.94-.61-4.4-.92-7.34-1.55ZM113.81,104.5c-7.36,5.99-13.11,17.06-14.83,26.25,1.1.27,1.65.4,2.75.66,5.33-8.21,10.63-16.44,15.9-24.69-1.53-.89-2.29-1.33-3.82-2.22Z"/>
      <path class="cls-1" d="M128.1,128.05c5.39-15.04,10.78-30.07,16.2-45.1-.55-1.94-.83-2.92-1.37-4.86,7.75-5.17,17.95-9.22,27.13-10.87.52,2.42.78,3.64,1.3,6.06-7.37,2.69-11.05,4.22-18.42,7.42-2.45,7.12-3.67,10.69-6.11,17.84,4.97-2.94,9.78-4.94,15.44-6.64.43,2,.64,3,1.07,4.99-7.67,3.65-11.51,5.63-19.18,9.71-3.09,9.1-4.63,13.66-7.72,22.8-3.33-.55-5-.82-8.33-1.35Z"/>
      <path class="cls-1" d="M171.36,121.97c-3.06-1.18-4.59-1.74-7.64-2.82-.38-13.74,5.69-32.91,20.87-36.98,3.94,1.6,5.92,2.45,9.86,4.3-2.11,6.19-3.16,9.3-5.27,15.56-6.39,1.82-9.58,2.91-15.97,5.3-.76,2.48-1.15,5.06-1.22,7.75,6.48-3.12,9.72-4.57,16.2-7.11.64,2.16.96,3.24,1.61,5.41-7.37,3.04-11.05,4.8-18.42,8.59ZM183.74,99.59c1.35-4.83,2.02-7.23,3.36-12.03-5.2,2.95-9.63,8.55-12.38,15.2,3.61-1.35,5.41-1.99,9.02-3.17ZM179.76,78.89c-.7-1.79-1.05-2.68-1.76-4.46,6.73-3.17,10.09-4.61,16.81-7.08.95,2.37,1.42,3.56,2.37,5.94-6.97,1.83-10.46,2.99-17.43,5.6Z"/>
    </g>
    <g>
      <path class="cls-1" d="M97.29,77.21s.03,0,.06,0c4.98-11.14,9.51-22.49,13.85-33.9,2.18-.15,3.27-.28,5.45-.59-3.98,11.23-8.04,22.43-12.32,33.55,5.86-2.69,8.79-4.81,14.65-8.95.48,1.56.71,2.34,1.19,3.9-6.45,4.72-9.67,7.21-16.12,10.25-2.7-1.41-4.05-2.23-6.76-4.26Z"/>
      <path class="cls-1" d="M130.28,70.3c-2.27-.07-3.41-.05-5.68-.01-.39-11.21,5.28-23.17,15.5-28.42,2.93.53,4.39.93,7.32,2.18-1.57,4.01-2.35,6.07-3.92,10.3-4.75,1.63-7.12,3-11.87,5.99-.57,1.79-.85,3.56-.91,5.33,4.81-3.51,7.22-5.16,12.04-7.36.48,1.36.72,2.04,1.19,3.41-5.47,2.43-8.21,4.41-13.68,8.58ZM139.47,53.34c1-3.33,1.5-4.98,2.5-8.24-3.86,2.43-7.15,7.01-9.2,11.93,2.68-1.65,4.02-2.42,6.7-3.69Z"/>
    </g>
    <g>
      <path class="cls-1" d="M159.33,219.47c-.24.36-1.36.68-1.6,1.16-1,1.96-.53,6.19-2.42,8.51-2.27,2.79-5.81,1.66-6.92,2.4-.26.17-.19,2.06-.13,2.15.32.46,8.53,3.28,10.22,4.44,6.71,4.62,8.46,22.48,13.11,30.06,1.29,2.1,10.34,12.3,12.36,14.17,2.37,2.2,6.25,3.05,8.34,4.92.9.81,2.59,4.43,2.85,4.49,1.18.29,6.79-4.97,7.72-6.05,3.43-3.99,8.09-12.44,3.37-16.89-3.7-3.49-10.14-5.7-14.23-9.75-5.74-5.7-5.55-13.37-10.86-18.77-1.36-1.39-6.79-3.66-2.32-4.87,8.23-2.23,22.69,5.41,28.15,11.49,1.28,1.43,3.66,5.72,4.51,6.49.27.25.45.38.84.29.49-.11,3.53-7.21,4.67-8.81,2.86-3.98,9.41-9.73,13.75-11.99,2.56-1.34,6.38-3.18,9.15-1.98,2.21.95-.16,2.1-.96,3.69-3.62,7.17-3.15,14.95-6.95,21.55-3.87,6.74-13.21,11.95-14.13,19.16-1.73,13.56-3.73,24.48-13.72,34.81-17.78,18.38-57.79,19.1-77.43,3.78-13.15-10.26-11.28-23.65-8.18-38.35-.77-1.48-1.6-11.01-2-11.42-.43-.44-5.19,5.46-5.5,6.48-2.06,6.77-3.1,14.89-5.35,22.02-.89,2.81-2.64,9.52-5.16,10.64-1.88.84-9.52,1.12-11.78.93-1.88-.16-6.08-.82-3.95-3.69,1.35-1.82,9.13-3.87,10.79-5.85,1.45-10.44,1.07-21.02,4.46-31.09.92-2.74,4.97-10.6,4.93-12.88-.03-1.34-2.6-1.24-1.89-4.41.21-.93,2.97-2.78,3.46-4.43.73-2.47-.04-5.22,1.38-7.93.92-1.75,3.13-2.95,4.06-4.4,1.07-1.68.86-3.52,1.58-5.19.93-2.16,3.21-2.93,4.15-4.87,1.27-2.61.34-5.21,1.64-7.95.9-1.91,2.32-2.27,3.4-3.94,2.19-3.41,1.36-5.1,5.72-7.54,7.8-4.35,20.59-4.07,25.7,4.31,1.76,2.89,1.94,6.53,3.08,9.34.68,1.67,3.48,3.69,2.08,5.79ZM134.03,200.65c-.19-.23-4.93,1.93-5.32,2.43-1.49,1.95-1.46,5.69-2.51,7.36-.69,1.09-2.13,1.45-3.03,2.61-2.08,2.69-.85,5.74-1.76,8.68-.53,1.71-2.77,2.78-3.75,4.44s-1.65,5.02-2.69,6.62c-.81,1.23-2.35,1.78-3.28,3.21-.44.69-2.44,6.43-2.2,6.68,1.29,1.39,2.74-4.96,2.98-5.34.83-1.37,3.03-2.21,3.85-3.76.96-1.81.69-3.83,1.97-5.93,1.08-1.78,3.2-2.71,4.01-4.45,1.09-2.35.58-5.77,1.56-8.03.81-1.86,3.12-2.21,4.03-3.87,1.54-2.81-.68-5.83,3.43-8.43.75-.47,3.65-1.11,2.72-2.21ZM121.9,233.94c.06.07,1.52-.46,1.71-.68.3-.34,1.34-3.89,1.9-4.87,1.36-2.38,3.28-3.19,3.96-6.2.46-2.01-.3-3.58.55-5.65,1-2.45,3.68-2.53,4.27-5.89.67-3.83-.86-4.08,2.41-7.46.28-.29,3.2-2.01,1.98-2.25-1.5-.29-4.72,3.03-5.26,4.33-.94,2.25.07,3.53-.49,5.41-.7,2.37-2.88,2.7-3.94,4.82-1.32,2.63-.38,4.93-1.22,7.24-.56,1.54-1.95,1.86-2.6,2.76-.76,1.04-3.85,7.77-3.26,8.44ZM145.88,202.34c.58-.74-1.94-1.17-2.55-1.01-.48.12-2.99,2.59-3.17,3.06-.75,2.02.59,4.54-.06,6.71-.45,1.51-3.55,2.71-4.21,4.24-1.11,2.58-.18,5.9-.87,8.17-.29.96-3.48,4.03-4.17,5.43-.57,1.16-1.93,5.89.48,3.59.17-.16.8-3.35,1.32-4.32.99-1.86,2.64-2.19,3.38-4.23.91-2.47.07-5.08.93-7.25.78-1.94,3.44-2.22,4.24-4.51.95-2.71-.52-7.31,2.2-9.09.53-.35,2.37-.69,2.45-.79ZM130.5,204.32v.28l.14-.14-.14-.14ZM151.44,204.97c-1.28-.99-3.18,1.91-3.74,3-1.2,2.33-1.26,5.41-2.46,7.7-.81,1.54-2.7,2.6-3.12,4.22-.54,2.11.07,4.7-.69,6.93-.25.73-4.22,6.37-4.85,7-3.25,3.26-7.16,1.48-10.87,1.83-2.93.27-7.27,2.7-9.47,4.64-4.17,3.68-13.13,22.38-14.52,28.08s-2.12,25.81-3.96,28.48c-.95,1.39-7.08,2.53-8.84,3.85-.23.17-.85.51-.31.83s11.14.19,11.53-1.75c2.06-6.98,4.65-13.9,6.4-20.97.7-2.85.61-6.79,1.69-9.31,1.24-2.9,6.86-8.52,9.01-11.59.96-1.38,4.35-8.07,5.4-8.17,3.89-.37-1.55,7.49-1.9,8.28-1.71,3.77-.86,7.42.07,11.32.22.91,2.35,7.52,2.68,7.76,1.96,1.46,13.2.13,15.94-.4,1.54-.3,7.5-1.98,8.38-3.04,1.02-1.23.97-7.86,1.92-9.51.54-.94,4.39-1.87,5.08-4.52.42-1.61-2.22-11.7,1.09-10.43.79.3,2.03,9.4,1.8,10.77-.16.93-1.3,2.48-1.21,3.06.05.35,2.79,5.66,3.21,6.37,5.14,8.81,13.83,11.5,18.82,18.14.44.59,5.69,10.63,7.19,9.03.99-1.06-4.89-5.93-2.41-6.2,3.18-.35,5.3,7.81,6.41,8.7.13.1.73.16.81-.1.25-.8-1.92-4.27-2.27-5.35-.12-.37-.82-1.69-.13-1.84,1.39-.31,3.43,6.02,4.23,7.05.74.16.43-1.18.35-1.48-.33-1.35-2.92-4.88-2.21-6,.35-.55.51-.41.87,0,.92,1.05,1.54,4.18,2.18,5.15,1.6,2.45-.12-2.71-.38-3.28-2.43-5.34-4.07-4.39-8.28-6.96-3.02-1.85-15.3-14.97-17.18-18.09-3.95-6.58-5.94-24.2-11.99-27.8-1.61-.96-9.97-3.4-10.22-3.89-.75-1.46.34-3.17.45-4.38.07-.8-1.1-1.67-.03-2.76,1.19-1.22,4.97.51,7.22-1.88s1.49-6.01,2.45-7.99c.32-.66,1.28-.65,1.36-1.49.05-.57-1.85-2.73-2.21-3.71-.74-2.03-1.42-7.89-3.24-9.31ZM222.51,249.07c2.35-3.98,4.75-7.87,7.72-11.46-.66-.65-5.89,6.29-6.38,7.02-.95,1.4-6,9.98-5.18,11.04.07.1.34-.17.42-.28,1-1.33,2.36-4.53,3.41-6.32ZM207.1,257.36c-1.86-6.54-8.48-13.12-14.57-16.04-.55-.26-3.06-1.53-3.48-1.17-.49.43,7.05,4.86,7.68,5.35,4.16,3.25,7.37,7.56,10.37,11.86ZM231.37,243.26l-7.33,13.82c.6.14.64-.3.9-.65,2.48-3.3,4.99-9.25,6.43-13.17ZM194.27,250.15c-1.54-1.27-3-3.75-5.22-3.51.82,1.39,13.3,14,14.1,13.26.48-.45-8.39-8.79-8.88-9.75ZM160.95,276.15c-2.95-3.13-3.29-5.53-5.25-8.72-3.34-5.43-4.75.94-3.61,4.46.43,1.32,6.44,7.39,7.89,9.04,4.79,5.49,7.51,10.52,15.53,12.4,1.88.44,3.46,1.14,2.88-.91-1.68-5.88-13.01-11.57-17.43-16.27ZM157.02,285.29v.28l.14-.14-.14-.14ZM144.05,289.81v.28l.14-.14-.14-.14ZM126.83,292.35v.28l.14-.14-.14-.14ZM119.92,293.76s-.54-.02-.56,0c-.36.36.92.36.56,0ZM157.02,297.99v.28l.14-.14-.14-.14ZM203.01,299.4v.28l.14-.14-.14-.14ZM164.64,300.25v.28l.14-.14-.14-.14ZM163.51,301.09v.28l.14-.14-.14-.14ZM129.94,302.79v.28l.14-.14-.14-.14ZM131.63,312.94v.28l.14-.14-.14-.14Z"/>
      <path class="cls-1" d="M119.92,293.76c.36.36-.92.36-.56,0,.02-.02.54-.02.56,0Z"/>
      <polygon class="cls-1" points="129.94 302.79 130.08 302.93 129.94 303.07 129.94 302.79"/>
      <polygon class="cls-1" points="163.51 301.09 163.65 301.24 163.51 301.38 163.51 301.09"/>
      <polygon class="cls-1" points="131.63 312.94 131.77 313.09 131.63 313.23 131.63 312.94"/>
      <polygon class="cls-1" points="164.64 300.25 164.78 300.39 164.64 300.53 164.64 300.25"/>
      <polygon class="cls-1" points="130.5 204.32 130.64 204.46 130.5 204.6 130.5 204.32"/>
      <polygon class="cls-1" points="157.02 297.99 157.17 298.13 157.02 298.27 157.02 297.99"/>
      <polygon class="cls-1" points="126.83 292.35 126.98 292.49 126.83 292.63 126.83 292.35"/>
      <polygon class="cls-1" points="144.05 289.81 144.19 289.95 144.05 290.09 144.05 289.81"/>
      <polygon class="cls-1" points="157.02 285.29 157.17 285.44 157.02 285.58 157.02 285.29"/>
      <polygon class="cls-1" points="203.01 299.4 203.15 299.54 203.01 299.68 203.01 299.4"/>
      <path class="cls-1" d="M139.39,257.36c1.09,1.13-2.67,5.89-3.69,6.61-2.3,1.62-5.99,1.26-8.36-.07-.95-.53-4.93-4.22-2.99-4.79,1.55-.45,2.62,1.42,4.21,2.16,3.33,1.55,5.55.72,8.15-1.65.42-.38,1.78-3.19,2.67-2.26Z"/>
      <path class="cls-1" d="M150.6,213.42c1.96-.39,2.67-.08,2.26,1.98-.82,4.15-7.76-.9-2.26-1.98Z"/>
      <path class="cls-1" d="M152.89,209.72c.16.1.41,1.29.32,1.37-.2.19-4.88,1.28-5.36.42-.61-1.09,4.56-2.09,5.04-1.79Z"/>
    </g>
    <path class="cls-3" d="M265.54,68.6c1.41,1.27,5.01,1.64,6.99,2.63,3.35,1.69,6.28,5.64,5.8,9.54-.58,4.75-6.45,7.17-.43,11.34,3.58,2.48,6.57,2.55,8.46,7.29,3.09,7.71-3.77,11.32-2.17,16.87.8,2.76,6.23,4.53,8.52,7.23,4.31,5.09,3.49,8.43-.87,12.8-.74.74-2.11,1.18-2.29,2.29-.71,4.43,6.69,6.59,5.44,13.48-.73,4.06-3.45,5.45-4.47,8.13-1.55,4.09,3.31,5.25,5.27,8.19,1.16,1.75,1.31,3.48,1.12,5.56-.5,5.53-7.03,8.61-7.68,13.32-1.01,7.24,6.83,7.12,5.49,14.94-.83,4.82-6.79,9.44-7.25,12.71s3.76,3.92,4.16,7.71c.25,2.32-1.91,6.32-3.47,8.02-1.04,1.14-2.4,1.82-3.3,3-3.73,4.88,2.03,7.72,3.82,11.87,2.24,5.19.59,10-3.7,13.45-1.6,1.28-4.78,2.41-5.72,4.08-2.04,3.64,2.43,10.81,3.22,14.58,1.02,4.87-1.02,13.02-7.42,11.97-.88-.14-1.45-.79-2.2-.95-2.7-.58-4.73.62-5.27,3.33-1.18,6.04,1.55,17.72-5.79,20.46-3.5,1.31-5.16-.12-6.96,4.24-1.28,3.11-1.53,6.13-4.12,8.83-5.79,6.04-14.06,4.75-18.85,10.9-1.94,2.5-2.78,5.83-4.82,8.13-4.05,4.55-11.72,8.06-17.72,5.54-2.59-1.09-5-5.2-8.11-4.8-3.32.43-4.63,5.15-7.44,6.94s-7.29,2.1-10.35,1.01c-5.58-1.98-8.19-9.24-14.76-8.27-3.5.52-4.36,4.47-6.69,6.61-2.74,2.52-6.17,3.05-9.77,2.44-4.59-.78-8.53-6.98-12.62-6.98-4.9,0-8.64,6.14-13.65,6.64-4,.4-8.18-1.23-11.04-4.01-2.4-2.34-4.18-6.97-7.89-7.51-5.97-.87-6.27,3.92-10.36,4.98-4.77,1.23-9.67-3.17-11.55-7.22-.99-2.14-1.34-6.61-4.63-6.18-1.14.15-2.42,1.32-3.69,1.59-4.9,1.01-7.96-1.97-10.23-5.91-1.66-2.88-2.14-7.8-4.58-9.77-4.39-3.56-7.61.91-12.4-1.25-5.18-2.34-3.76-8.24-4.35-12.46-.54-3.87-4.43-2.7-7.11-3.04-4.95-.62-8.25-4.21-7.91-9.26.16-2.44,2.12-6.32,1.7-8.31-.64-2.98-4.47-1.79-6.72-2.04-7.79-.89-7.95-7.84-5.52-13.85,1.01-2.49,4.13-6.35,1.66-8.89-2.12-2.16-6.13.38-9.09-3.51-1.69-2.21-1.71-3.98-1.09-6.65.53-2.32,3.03-5.43,2.64-7.5-.31-1.66-3.53-2.75-4.72-3.69-7.03-5.55-.78-12.4.08-18.82.98-7.27-7.28-2.96-7.95-10.42-.54-6.02,6.36-12.21,5.59-16.09-.44-2.19-5.83-2.33-6.57-5.68-1.06-4.74,1.82-9.33,4.33-13.03,1.54-2.27,3.52-3.16,1.49-6.45s-5.11-3.16-4.06-8.73c.79-4.15,4.54-6.37,6.91-9.19,5.45-6.48-2.87-8.54-3.49-14.34-.78-7.22,3.61-8.86,7.53-13.13,4.95-5.4-.36-8.36-1.55-13.16-1.4-5.68,1.19-11.44,5.6-14.99,3.06-2.47,7.38-3.52,8.8-7.65,2.32-6.75-.29-9.17.32-15.09,1.23-11.93,10-11.77,17.43-17.93,6.13-5.08,3.71-12.08,8.24-17.66,5.8-7.14,12.1-6.07,19.86-7.43,9.68-1.7,7.78-8.46,13.61-13.68,1.64-1.46,3.5-2.75,5.76-3,4.75-.53,12.02,6.82,16.25,1.9,3.21-3.72,2.61-5.76,7.81-8.64,7.48-4.14,10.55-2.17,17.47,1.2,1.52.74,1.14,1.75,3.58.99,6.06-1.87,8.02-7.02,15.42-8.06,6.03-.84,7.79,2.78,11.79,5.32,3.67,2.32,5.06,1.61,9.01.44,6.05-1.8,11.15-5.59,17.61-1.86,1.4.81,4.59,3.81,5.28,5.22,1.83,3.75-.12,6.56,5.95,5.88s11.25-4.44,17.33.24c4.97,3.83,2.75,11.31,6.9,13.4,2.3,1.16,7.15.14,10.02.48,6.7.8,10.95,5.16,10.78,12.01-.06,2.5-1.26,4.98.84,7.17,1.9,1.98,5.88,1.34,8.38,1.77,5.23.91,8.55,4.19,8.97,9.58.22,2.78-1.05,6.82,1.16,8.82ZM288.99,146.31c-2.57-3.25-4.67-6.29-2.52-10.5,1.73-3.39,7.86-5.48,2.57-10.02-3.93-3.38-8.73-3.52-9.26-10.34-.41-5.31,3.95-10.12,3.48-13.62-.67-4.96-9.39-4.92-11.45-11.31-1.76-5.45,5.09-9.88.28-14.63-4.2-4.15-11.18-1.9-12.23-9.83-.43-3.3,1.03-6.76-1.77-9.43-3.8-3.62-10.58-1.16-14.85-6.15-2.93-3.42-.71-10.2-3.69-13.46-4.4-4.82-12.08-1.59-17.83-5.97-4.54-3.45-3.17-5.22-4.96-9.39-3.08-7.14-12.52-1.27-17.96-1.99-7.18-.95-6.15-8.9-11.29-11.46-8.97-4.47-17.21,7.98-26.48,2.34-3.22-1.96-4.7-5.01-9.13-5.22-7.6-.35-10.65,7.46-18.61,8.05-4.32.32-7.08-4.22-12.19-3.82-10.41.81-10.78,11.54-20.55,10.4-4.63-.54-8.01-4.56-12.17-.08-5.27,5.68-4.88,11.22-14,13.66-7.16,1.91-10.95-.57-17.48,4.57-6.03,4.75-4.49,12.03-8.43,17.12-3.84,4.97-8.57,5.92-13.2,9.2-7.19,5.1-3.21,11.28-3.6,18.11-.25,4.31-2.27,8.5-5.23,11.57-4.08,4.23-10.74,4.46-11.21,11.9-.42,6.72,6.14,7.91,3.51,16.12-1.57,4.89-4.37,5.57-7.38,8.72-5.36,5.59,2.56,8.88,3.13,14.41.63,6.12-6.2,10.66-8.99,15.44-.92,4,4.85,4.71,5.5,9.41.99,7.16-9.65,12.22-7.15,17.3.41.83,4.65,1.25,6.29,3.86,2.28,3.63-3.38,11.52-4.77,15.15-2.49,6.51,5.36,4.01,7.23,9.34,2.32,6.61-4.74,12.97-3.6,17.95.68,2.98,7.17,2.63,8.85,6.9,2.03,5.15-1.32,6.62-2.12,10.48-1.11,5.33,4.86,3.47,7.38,5.26s2.95,6.21,2.59,8.91c-.39,2.93-5.99,11.8-1.46,13.42,2.6.93,5.23-.15,8.15,1.3,7.39,3.65-1.04,14.05,3.51,17.5,2.34,1.77,5.39,1.01,8.04,1.77,8.82,2.52,2.07,11.37,6.81,14.89,3.22,2.39,6.32-.34,9.75.02,1.07.11,3.08.72,4.05,1.23,4.99,2.6,4.12,10.48,8.06,13.64,4.07,3.27,6.43-2.34,11.67.23,5.35,2.63,4.04,9.01,8.67,12.33,4.55,3.27,4.98-1.44,8.73-2.76,11.4-4.03,14.59,14.09,24.5,11.55,2.31-.59,7.09-4.53,9.7-5.71,4.87-2.2,9.35-.29,13.53,2.43.98.64,1.76,2.16,3.35,2.58,1.21.32,3.75.29,5,.08,3.27-.55,3.68-4.23,6.04-6.21,3.59-3.01,7.49-2.54,11.49-.66,5.74,2.7,7.79,9.38,15.46,6.62,5.13-1.84,3.9-8.9,10.53-9.44,6.47-.52,8.73,6.35,13.5,5.84,7.41-.79,9.05-6.31,12.37-11.44,6.18-9.55,16.27-5.83,22.13-13.92,2.71-3.74,2.1-9.24,7.28-11.27,5.25-2.06,6.56-.12,7.44-7.26.59-4.78-.75-17.99,6.18-18.35,3.06-.16,6.49,3.17,7.75-.27,1.64-4.43-1.4-8.4-1.9-12.58-.23-1.95-.5-6.74.08-8.49,1.83-5.47,12.23-6.33,10.64-14.48-1.05-5.34-6.59-6.49-5.91-13,.58-5.49,6.07-7.05,6.85-11.01.65-3.3-3.61-3.78-3.32-8.54.34-5.51,6.83-10.65,6.99-14.41.13-3.17-6.18-6.74-6.35-11.89-.21-6.37,4.11-8.45,6.96-13.02,3.78-6.07-1.47-6.07-3.94-9.58-1.61-2.29-1.87-5.03-1.08-7.69.97-3.27,5.38-5.97,4.22-9.81-.39-1.31-1.59-1.83-2.17-2.56Z"/>
    <g class="cls-4">
      <path class="cls-2" d="M258.56,76.76c1.31,1.18,4.67,1.51,6.52,2.43,3.12,1.56,5.86,5.2,5.41,8.8-.54,4.38-6.01,6.62-.4,10.47,3.34,2.29,6.12,2.35,7.89,6.72,2.88,7.12-3.52,10.45-2.02,15.57.75,2.55,5.81,4.18,7.95,6.67,4.02,4.7,3.25,7.78-.82,11.81-.69.68-1.97,1.09-2.13,2.11-.66,4.09,6.24,6.08,5.08,12.44-.68,3.74-3.22,5.03-4.16,7.5-1.45,3.77,3.09,4.84,4.91,7.56,1.08,1.61,1.22,3.21,1.05,5.13-.46,5.1-6.55,7.95-7.16,12.29-.94,6.69,6.36,6.57,5.12,13.79-.77,4.45-6.33,8.71-6.76,11.73-.44,3.06,3.5,3.62,3.88,7.12.23,2.14-1.78,5.83-3.23,7.4-.97,1.05-2.24,1.68-3.08,2.77-3.48,4.51,1.89,7.12,3.56,10.96,2.09,4.79.55,9.23-3.45,12.41-1.49,1.18-4.46,2.23-5.33,3.77-1.9,3.36,2.26,9.97,3,13.45.95,4.49-.95,12.02-6.92,11.05-.82-.13-1.36-.73-2.05-.88-2.52-.54-4.41.57-4.91,3.07-1.1,5.58,1.44,16.35-5.4,18.88-3.27,1.21-4.81-.11-6.48,3.92-1.19,2.87-1.43,5.66-3.84,8.15-5.4,5.57-13.11,4.38-17.58,10.06-1.81,2.31-2.59,5.38-4.5,7.5-3.78,4.2-10.93,7.44-16.52,5.12-2.42-1-4.66-4.8-7.56-4.43-3.09.39-4.32,4.76-6.94,6.4-2.56,1.61-6.79,1.93-9.65.93-5.2-1.82-7.64-8.53-13.76-7.63-3.27.48-4.07,4.12-6.24,6.1-2.56,2.33-5.76,2.82-9.11,2.25-4.28-.72-7.95-6.45-11.77-6.44-4.57,0-8.06,5.66-12.73,6.13-3.73.37-7.63-1.13-10.29-3.7-2.24-2.16-3.9-6.43-7.35-6.93-5.56-.8-5.85,3.62-9.66,4.59-4.44,1.14-9.01-2.92-10.77-6.67-.92-1.97-1.24-6.1-4.32-5.7-1.06.14-2.25,1.22-3.44,1.46-4.57.94-7.42-1.82-9.54-5.46-1.55-2.66-2-7.2-4.27-9.02-4.09-3.28-7.09.84-11.56-1.15-4.83-2.16-3.5-7.61-4.05-11.49-.5-3.57-4.13-2.49-6.63-2.8-4.62-.58-7.69-3.89-7.38-8.55.15-2.25,1.98-5.83,1.58-7.67-.6-2.75-4.17-1.65-6.27-1.89-7.27-.82-7.42-7.23-5.15-12.78.94-2.29,3.85-5.86,1.54-8.2-1.97-2-5.71.35-8.48-3.23-1.57-2.04-1.59-3.67-1.02-6.13.5-2.14,2.82-5.01,2.46-6.92-.29-1.53-3.29-2.54-4.4-3.41-6.56-5.12-.73-11.44.08-17.36.91-6.71-6.79-2.73-7.41-9.61-.5-5.56,5.93-11.26,5.21-14.85-.41-2.02-5.43-2.15-6.13-5.24-.98-4.37,1.7-8.61,4.04-12.02,1.44-2.09,3.28-2.91,1.39-5.95s-4.77-2.91-3.78-8.05c.73-3.83,4.23-5.88,6.44-8.48,5.08-5.98-2.67-7.88-3.25-13.23-.72-6.66,3.37-8.17,7.02-12.11,4.61-4.98-.34-7.71-1.44-12.15-1.3-5.24,1.11-10.55,5.22-13.83,2.85-2.28,6.88-3.25,8.2-7.06,2.17-6.23-.27-8.46.29-13.92,1.15-11.01,9.32-10.86,16.25-16.54,5.71-4.69,3.45-11.15,7.68-16.3,5.41-6.59,11.28-5.6,18.52-6.86,9.03-1.57,7.25-7.81,12.69-12.62,1.53-1.35,3.27-2.54,5.37-2.77,4.42-.49,11.2,6.29,15.15,1.76,2.99-3.43,2.43-5.32,7.28-7.98,6.97-3.82,9.84-2,16.29,1.1,1.42.68,1.06,1.61,3.34.92,5.65-1.73,7.48-6.48,14.38-7.44,5.62-.78,7.27,2.57,11,4.91,3.42,2.14,4.72,1.49,8.4.4,5.64-1.66,10.39-5.16,16.42-1.72,1.31.75,4.28,3.51,4.92,4.82,1.71,3.46-.11,6.06,5.54,5.43,5.74-.64,10.49-4.1,16.16.22,4.63,3.53,2.57,10.44,6.43,12.37,2.14,1.07,6.67.13,9.34.44,6.24.73,10.21,4.77,10.05,11.08-.06,2.31-1.18,4.6.79,6.62,1.77,1.82,5.48,1.23,7.81,1.63,4.88.84,7.97,3.87,8.37,8.84.2,2.57-.98,6.29,1.08,8.14ZM280.42,148.47c-2.39-3-4.35-5.81-2.35-9.69,1.61-3.13,7.33-5.05,2.39-9.25-3.67-3.12-8.14-3.25-8.63-9.54-.38-4.9,3.68-9.34,3.24-12.57-.63-4.58-8.75-4.54-10.68-10.44-1.64-5.03,4.74-9.12.26-13.5-3.92-3.83-10.43-1.76-11.4-9.07-.4-3.04.96-6.24-1.65-8.7-3.54-3.34-9.87-1.07-13.85-5.67-2.73-3.16-.66-9.41-3.44-12.42-4.11-4.45-11.26-1.47-16.63-5.51-4.23-3.18-2.96-4.82-4.63-8.66-2.87-6.59-11.67-1.17-16.74-1.84-6.69-.88-5.74-8.21-10.53-10.57-8.36-4.12-16.05,7.36-24.69,2.16-3-1.81-4.39-4.62-8.52-4.81-7.09-.32-9.93,6.89-17.35,7.42-4.02.29-6.6-3.9-11.37-3.53-9.7.75-10.05,10.65-19.16,9.59-4.32-.5-7.47-4.21-11.35-.07-4.91,5.24-4.55,10.36-13.05,12.6-6.67,1.76-10.21-.52-16.3,4.22-5.63,4.39-4.19,11.1-7.86,15.8s-7.99,5.46-12.3,8.49c-6.7,4.71-2.99,10.41-3.36,16.71-.23,3.97-2.11,7.84-4.88,10.68-3.81,3.9-10.02,4.12-10.45,10.98-.39,6.2,5.72,7.3,3.27,14.87-1.46,4.51-4.07,5.14-6.88,8.04-4.99,5.16,2.39,8.19,2.92,13.3.59,5.65-5.78,9.83-8.38,14.25-.86,3.7,4.52,4.35,5.12,8.68.92,6.61-9,11.27-6.66,15.97.38.77,4.34,1.16,5.86,3.56,2.12,3.35-3.15,10.63-4.45,13.98-2.32,6,5,3.7,6.74,8.62,2.17,6.1-4.42,11.97-3.35,16.57.64,2.75,6.68,2.42,8.25,6.37,1.89,4.75-1.23,6.11-1.98,9.67-1.04,4.92,4.53,3.21,6.88,4.86s2.75,5.73,2.41,8.22c-.36,2.7-5.58,10.89-1.36,12.39,2.43.86,4.88-.13,7.6,1.2,6.89,3.37-.97,12.97,3.27,16.14,2.18,1.64,5.02.93,7.49,1.63,8.22,2.33,1.93,10.49,6.35,13.74,3.01,2.21,5.9-.31,9.09.02,1,.1,2.87.66,3.78,1.13,4.65,2.4,3.85,9.67,7.52,12.59,3.79,3.02,6-2.16,10.88.21s3.77,8.31,8.08,11.38,4.64-1.33,8.14-2.55c10.63-3.72,13.61,13,22.84,10.66,2.16-.55,6.61-4.18,9.04-5.26,4.54-2.03,8.72-.27,12.61,2.24.91.59,1.64,1.99,3.13,2.38,1.13.29,3.5.27,4.66.07,3.05-.5,3.43-3.9,5.63-5.73,3.34-2.78,6.98-2.35,10.71-.61,5.35,2.49,7.26,8.65,14.42,6.11,4.79-1.7,3.64-8.22,9.82-8.71s8.14,5.86,12.59,5.39c6.9-.73,8.44-5.82,11.54-10.56,5.77-8.81,15.17-5.38,20.64-12.84,2.53-3.45,1.96-8.53,6.79-10.4,4.9-1.9,6.12-.11,6.94-6.7.55-4.41-.7-16.61,5.76-16.94,2.85-.15,6.05,2.92,7.23-.25,1.53-4.09-1.31-7.75-1.77-11.61-.22-1.8-.47-6.22.08-7.84,1.7-5.05,11.4-5.84,9.92-13.36-.97-4.93-6.15-5.99-5.51-12,.54-5.06,5.66-6.51,6.39-10.16.61-3.04-3.37-3.48-3.09-7.88.32-5.09,6.37-9.83,6.52-13.3.13-2.92-5.76-6.22-5.92-10.97-.19-5.88,3.83-7.79,6.49-12.02,3.53-5.6-1.37-5.6-3.67-8.84-1.5-2.12-1.74-4.64-1.01-7.1.9-3.02,5.02-5.51,3.94-9.05-.37-1.2-1.49-1.69-2.02-2.36Z"/>
    </g>
  </g>
</svg>