<?xml version="1.0" encoding="UTF-8"?>
<svg id="Calque_2" data-name="Calque 2" xmlns="http://www.w3.org/2000/svg" viewBox="0 0 252.75 247.37">
  <defs>
    <style>
      .cls-1 {
        fill: #fff;
      }
    </style>
  </defs>
  <g id="Calque_1-2" data-name="Calque 1">
    <g>
      <path class="cls-1" d="M91.72,74.8s.05-.02.08-.03c6.26-17.98,12.5-35.97,18.73-53.96,2.95.05,4.42.07,7.37.11-5.54,16.85-11.09,33.69-16.66,50.53,7.92-4.76,11.88-7.2,19.8-12.07.64,2.53.97,3.79,1.61,6.32-8.72,5.56-13.08,8.35-21.8,13.79-3.65-1.86-5.48-2.8-9.13-4.7Z"/>
      <path class="cls-1" d="M136.31,66.81c-3.07-.55-4.6-.82-7.67-1.36-1.25-15.7,7.13-33.85,20.95-41.76,3.96.54,5.94.82,9.9,1.42-2.12,6.89-3.18,10.34-5.3,17.24-6.42,3.69-9.62,5.58-16.04,9.37-.77,2.66-1.15,5.33-1.23,8.04,6.51-4.5,9.76-6.74,16.27-11.15.64,1.99.97,2.98,1.61,4.97-7.4,5.22-11.1,7.89-18.5,13.24ZM148.75,41.41c1.35-5.2,2.03-7.81,3.38-13-5.22,4.43-9.67,11.09-12.43,18.38,3.62-2.16,5.43-3.24,9.06-5.38Z"/>
      <path class="cls-1" d="M26.63,172.45c-4.27-1.34-6.4-2.06-10.67-3.62.68-22.83,11.44-46.91,33.77-55.85,3.99.94,7.91,2.33,10.51,4.56-2.86,9.22-4.28,13.82-7.14,22.97-2.89-.05-4.33-.09-7.21-.21,2.39-8.65,3.59-12.98,5.99-21.68-17.57,9.26-25.31,27.97-27.17,46.85,8.23-4.35,16.34-9.14,24.18-14.16.95,2.55,1.43,3.82,2.38,6.36-7.99,5.22-16.25,10.21-24.64,14.77Z"/>
      <path class="cls-1" d="M75.45,157.89c2.3-7.85,3.45-11.79,5.76-19.67-4.92,8.62-9.88,17.22-14.89,25.79-4.7-.34-7.05-.55-11.74-1.06-.15-14.82,8.77-33.86,22.57-40.42,3.07,1.85,4.6,2.76,7.67,4.56,1.01-2.88,1.52-4.32,2.53-7.2,2.7.06,4.05.09,6.75.12-3.75,13.01-7.51,26.02-11.28,39.03-2.95-.44-4.42-.67-7.37-1.16ZM77.6,129.76c-7.77,7.05-12.64,16.88-14.89,27.03,1.11.22,1.66.33,2.76.55,5.37-8.49,10.69-17.01,15.96-25.56-1.54-.8-2.3-1.21-3.84-2.02Z"/>
      <path class="cls-1" d="M87.65,166.23c-.49-1.62-.74-2.43-1.23-4.05,1.75-1.46,2.62-2.2,4.38-3.67,4.39-12.76,8.76-25.52,13.12-38.28-1.96.69-2.95,1.04-4.91,1.72.49-2.2.74-3.3,1.23-5.49,2.27-.79,3.41-1.19,5.68-1.99,2.89-8.42,4.33-12.64,7.21-21.07,3.04-.02,4.56-.03,7.6-.06-.08,4.94-2.61,13.15-6.83,18.28,2.73-.98,4.1-1.48,6.83-2.47-.64,2.26-.97,3.39-1.61,5.65-2.86,1.04-4.28,1.55-7.14,2.58-3.96,12-7.92,23.99-11.9,35.98-2.3,7.1-8.21,12.11-12.43,12.89Z"/>
      <path class="cls-1" d="M123.5,144.96c-3.07-.54-4.61-.81-7.68-1.36-1.25-15.75,7.17-33.83,20.95-41.84,3.96.5,5.94.76,9.9,1.29-2.12,6.92-3.18,10.38-5.3,17.31-6.42,3.78-9.62,5.69-16.04,9.5-.77,2.66-1.15,5.33-1.23,8.04,6.51-4.52,9.76-6.78,16.27-11.27.64,1.98.97,2.97,1.61,4.95-7.4,5.32-11.1,8.02-18.5,13.38ZM135.93,119.49c1.35-5.22,2.03-7.82,3.38-13.04-5.22,4.49-9.67,11.18-12.43,18.48,3.62-2.18,5.43-3.27,9.06-5.44ZM131.94,99.76c-.71-1.62-1.06-2.43-1.77-4.04,6.75-4.82,10.13-7.23,16.89-11.98.95,2.06,1.43,3.09,2.38,5.15-7,4.3-10.5,6.5-17.5,10.88Z"/>
      <path class="cls-1" d="M179.98,122c3.01-8.51,4.51-12.75,7.52-21.2-5.29,9.05-10.54,18.14-15.73,27.24-4.85-.13-7.28-.15-12.13-.17-.11-14.87,8.55-34.74,22.56-41.3,3.41,1.99,5.11,3,8.52,5.06,3.23-8.96,6.48-17.92,9.75-26.87,2.52,1.52,3.78,2.3,6.29,3.88-6.75,18.28-13.43,36.6-20.03,54.93-2.7-.66-4.05-.97-6.75-1.58ZM182.67,93.81c-7.87,7.06-12.66,17.09-14.89,27.3,1.26.11,1.89.17,3.15.29,5.27-8.56,10.59-17.08,15.96-25.58-1.69-.82-2.53-1.22-4.22-2.02Z"/>
      <path class="cls-1" d="M218.97,112.92c2.46-8.45,3.68-12.66,6.14-21.04-4.11,9.01-9.54,18.99-16.35,26.31-3.93-1.12-5.89-1.65-9.82-2.63,3.46-11.91,6.94-23.81,10.44-35.71,3.07.76,4.6,1.16,7.67,2.01-1.28,8.96-5.24,18.6-9.29,26.57,1.63.46,2.44.69,4.07,1.17,5.84-10.98,11.77-21.92,17.81-32.79,2.86.53,4.28.82,7.14,1.45-3.71,12.34-7.4,24.68-11.05,37.03-2.7-.99-4.05-1.46-6.75-2.37Z"/>
      <path class="cls-1" d="M11.94,247.37c-4.27-1.65-6.4-2.53-10.67-4.44.65-22.35,11.3-45.86,33.77-53.52,3.99,1.17,7.91,2.76,10.51,5.13-2.86,9.08-4.28,13.6-7.14,22.6-2.89-.21-4.33-.33-7.21-.62,2.39-8.5,3.59-12.77,5.99-21.34-17.33,8.12-25.77,26.81-27.17,45.08,9.67-4.44,14.51-6.99,24.18-12.56.95,2.6,1.43,3.9,2.38,6.5-9.86,5.82-14.78,8.5-24.64,13.17Z"/>
      <path class="cls-1" d="M60.06,235.68c.69-6.25,4.22-16.07,8.75-25.97-.95-.52-1.43-.79-2.38-1.32-5.9,8.48-11.88,16.91-17.96,25.26-1.35,3.65-2.03,5.47-3.38,9.1-2.7-.84-4.05-1.28-6.75-2.2,6.89-18.72,13.69-37.49,20.42-56.27,2.92.42,4.37.61,7.29.96-4.4,12.18-8.82,24.36-13.28,36.52,4.85-8.11,10.46-16.44,16.81-23.48,3.29,1.72,4.93,2.56,8.21,4.22-3.32,11.53-6.64,23.06-9.98,34.58-3.1-.53-4.65-.81-7.75-1.41Z"/>
      <path class="cls-1" d="M98.74,223.78c2.3-7.95,3.45-11.93,5.76-19.9-4.94,8.83-9.9,17.65-14.89,26.45-4.7-.1-7.05-.17-11.74-.37-.13-15.11,8.8-34.48,22.56-41.62,3.07,1.72,4.6,2.58,7.67,4.28,1.01-2.91,1.52-4.36,2.53-7.28,2.7-.02,4.05-.03,6.75-.05-3.76,13.12-7.52,26.24-11.28,39.35-2.95-.34-4.42-.51-7.37-.87ZM100.89,195.55c-7.75,7.36-12.62,17.4-14.89,27.75,1.11.16,1.66.24,2.76.4,5.35-8.74,10.67-17.5,15.96-26.27-1.53-.75-2.3-1.12-3.84-1.88ZM108.87,178.23c-4.85,3.24-7.28,4.84-12.13,8.01-.74-1.47-1.11-2.2-1.84-3.67,5.96-4.39,8.93-6.63,14.89-11.12,3.47,1.37,5.2,2.05,8.67,3.4-.86,2-1.29,3-2.15,5-2.98-.64-4.47-.97-7.45-1.62Z"/>
      <path class="cls-1" d="M124.38,218.14c-3.1-.53-4.65-.79-7.75-1.33,3.61-10.52,7.21-21.04,10.82-31.56-1.9.69-2.86,1.04-4.76,1.73.52-2.22.78-3.32,1.31-5.54,2.18-.79,3.27-1.19,5.45-1.98,1.47-4.31,2.21-6.47,3.68-10.78,2.86.1,4.28.15,7.14.26-.98,2.99-1.47,4.49-2.46,7.49,3.35-1.21,5.02-1.81,8.37-3-.64,2.26-.97,3.38-1.61,5.64-3.47,1.24-5.2,1.86-8.67,3.12-3.02,9.26-6.04,18.51-9.06,27.77,3.96-2.88,5.94-4.33,9.9-7.2.74,2.04,1.11,3.06,1.84,5.09-5.68,4.1-8.52,6.17-14.2,10.29Z"/>
      <path class="cls-1" d="M152.01,208.22c-3.07-.59-4.6-.87-7.67-1.44-1.24-15.59,7.04-33.78,20.95-41.44,3.96.63,5.94.97,9.9,1.68-2.12,6.82-3.18,10.24-5.3,17.09-6.42,3.53-9.62,5.35-16.04,9.04-.77,2.64-1.15,5.31-1.23,8.02,6.51-4.41,9.76-6.59,16.27-10.84.64,2,.97,3.01,1.61,5.01-7.4,5.03-11.1,7.62-18.5,12.87ZM164.44,183.04c1.35-5.17,2.03-7.76,3.38-12.92-5.22,4.3-9.67,10.88-12.43,18.13,3.62-2.11,5.43-3.15,9.06-5.21Z"/>
      <path class="cls-1" d="M195.68,191.25c2.3-7.73,3.45-11.59,5.76-19.28-5.02,8.35-9.98,16.75-14.89,25.16-4.7-.34-7.05-.47-11.74-.68-.13-14.61,8.44-34.49,22.57-40.47,3.07,2.04,4.6,3.07,7.67,5.19,1.01-2.77,1.52-4.15,2.53-6.92,2.7.38,4.05.59,6.75,1.05-3.78,12.54-7.54,25.08-11.28,37.63-2.95-.71-4.42-1.05-7.37-1.69ZM197.83,163.23c-7.48,6.07-13.19,17.41-14.89,26.71,1.11.2,1.66.3,2.76.51,5.26-8.35,10.57-16.66,15.96-24.92-1.53-.93-2.3-1.39-3.84-2.31Z"/>
      <path class="cls-1" d="M233.67,184.49c2.46-8.28,3.68-12.4,6.14-20.6-4.09,8.66-9.55,18.32-16.35,25.22-3.93-1.37-5.89-2-9.82-3.2,3.46-11.71,6.94-23.41,10.44-35.11,3.07.95,4.6,1.45,7.67,2.5-.77,6.53-4.45,16.2-9.29,25.98,1.63.55,2.44.84,4.07,1.42,5.82-10.58,11.75-21.1,17.81-31.55,2.85.74,4.28,1.14,7.14,2.01-3.72,12.05-7.4,24.11-11.05,36.19-2.7-1.18-4.05-1.75-6.75-2.84Z"/>
    </g>
  </g>
</svg>